<svg width="1862" height="957" viewBox="0 0 1862 957" fill="none" xmlns="http://www.w3.org/2000/svg">
<g opacity="0.3">
<path d="M1611.99 80.2938C1612.05 80.5519 1612.06 80.8156 1612.02 81.0699C1611.98 81.3242 1611.89 81.5641 1611.75 81.7759L1608.48 86.7539L1612.9 93.0199C1612.95 93.0865 1612.98 93.1619 1613 93.2404C1613.02 93.3189 1613.02 93.3986 1613 93.4739L1612.58 95.245C1612.56 95.3424 1612.51 95.4297 1612.43 95.498C1612.36 95.5664 1612.27 95.6133 1612.17 95.634C1612.07 95.6546 1611.96 95.6483 1611.86 95.6157C1611.75 95.583 1611.66 95.5252 1611.58 95.4482L1606.36 89.9914L1602.88 94.6425L1603.53 96.2251L1602.47 97.8401C1601.73 97.0435 1600.98 96.2442 1600.25 95.4423C1600.25 95.4423 1598.99 95.0043 1597.17 94.3594L1598.23 92.7445L1599.94 92.7108L1602.83 87.669L1595.75 85.0482C1595.65 85.009 1595.56 84.9455 1595.49 84.8642C1595.42 84.7829 1595.37 84.6867 1595.35 84.5853C1595.33 84.484 1595.33 84.3811 1595.37 84.2871C1595.4 84.1932 1595.46 84.1115 1595.54 84.0504L1597 82.9657C1597.06 82.9183 1597.13 82.8855 1597.21 82.8697C1597.29 82.854 1597.37 82.8556 1597.46 82.8746L1604.96 84.4454L1608.23 79.4674C1608.37 79.2543 1608.55 79.0732 1608.77 78.9343C1608.99 78.7955 1609.23 78.7016 1609.5 78.6581C1610.03 78.5766 1610.58 78.7024 1611.05 79.0084C1611.52 79.3145 1611.85 79.7762 1611.99 80.2938Z" stroke="white" stroke-opacity="0.2" stroke-width="1.7041" stroke-linecap="round" stroke-linejoin="round"/>
<path d="M1103.43 703.832C1161.31 526.954 1242.56 467.473 1275.95 459.841C1312.86 577.713 1394.69 737.967 1426.68 436.014C1712.97 138.316 1587.65 424.524 1600.33 429.283C1639.64 442.368 1690.96 586.176 1769.7 349.911C1848.45 113.646 1591.94 185.219 1601.17 100.553" stroke="white" stroke-opacity="0.2" stroke-width="1.7041" stroke-dasharray="3.41 3.41"/>
</g>
<path d="M21.3582 702.099C98.8234 512.6 192.659 453.749 229.894 448.011C261.096 580.251 338.232 762.537 397.152 433.764C734.763 129.729 574.679 433.862 588.21 440.083C630.317 457.544 675.266 619.377 780.312 366.366C885.358 113.355 598.266 171.639 615.078 79.474" stroke="white" stroke-opacity="0.2" stroke-width="1.87454" stroke-dasharray="3.75 3.75"/>
</svg>
