<svg width="52" height="80" viewBox="0 0 52 80" fill="none" xmlns="http://www.w3.org/2000/svg">
<path d="M52 7.23941C52 25.9922 47.596 80 24.4 80C1.20404 80 0 64.7979 0 46.0451C0 27.2923 10.4 21.0986 24.4 12.0901C47.596 12.0901 52 -11.5134 52 7.23941Z" fill="white"/>
<path d="M52 7.23941C52 25.9922 47.596 80 24.4 80C1.20404 80 0 64.7979 0 46.0451C0 27.2923 10.4 21.0986 24.4 12.0901C47.596 12.0901 52 -11.5134 52 7.23941Z" fill="#BF4E03"/>
<path d="M41.6491 27.7589C41.6491 40.4789 28.8943 50.7906 13.1605 50.7906C-2.57335 50.7906 38.9359 63.5106 38.9359 50.7906C38.9359 38.0705 -2.57335 35.2794 13.1605 35.2794C28.8943 35.2794 41.6491 15.0388 41.6491 27.7589Z" fill="white"/>
<path d="M41.6491 27.7589C41.6491 40.4789 28.8943 50.7906 13.1605 50.7906C-2.57335 50.7906 38.9359 63.5106 38.9359 50.7906C38.9359 38.0705 -2.57335 35.2794 13.1605 35.2794C28.8943 35.2794 41.6491 15.0388 41.6491 27.7589Z" fill="white"/>
</svg>
